<svg width="16" height="17" viewBox="0 0 16 17" fill="none" xmlns="http://www.w3.org/2000/svg">
<path d="M0 1.76234C0 0.832172 0.754047 0.078125 1.68421 0.078125H7.57895V3.8676C7.57895 5.96047 5.88234 7.65707 3.78947 7.65707H0V1.76234Z" fill="#FF3329"/>
<path d="M0 14.3947C0 15.3249 0.754047 16.0789 1.68421 16.0789H7.57895V12.2895C7.57895 10.1966 5.88234 8.5 3.78947 8.5H0V14.3947Z" fill="#FF3329"/>
<path d="M16.0008 1.76234C16.0008 0.832172 15.2468 0.078125 14.3166 0.078125H8.42188V3.8676C8.42188 5.96047 10.1185 7.65707 12.2113 7.65707H16.0008V1.76234Z" fill="#FF3329"/>
<path d="M16.0008 14.3947C16.0008 15.3249 15.2468 16.0789 14.3166 16.0789H8.42188V12.2895C8.42188 10.1966 10.1185 8.5 12.2113 8.5H16.0008V14.3947Z" fill="#FF3329"/>
</svg>
