<svg width="91" height="19" viewBox="0 0 91 19" fill="none" xmlns="http://www.w3.org/2000/svg">
<path d="M0.476562 5.09647L3.78032 5.12092L6.21467 12.9959L8.68627 5.12092H11.4932L13.9648 12.9959L16.3992 5.12092H19.7029L15.6043 18.3274H13.0209L10.0897 9.71875L7.1586 18.3274H4.57521L0.476562 5.09647Z" fill="black"/>
<path d="M27.5008 18.6943C26.1677 18.6943 24.9878 18.4008 23.9611 17.8139C22.9344 17.2188 22.1353 16.3954 21.564 15.3437C21.001 14.284 20.7194 13.0774 20.7194 11.7242C20.7194 10.3628 21.0051 9.15625 21.5764 8.10462C22.156 7.04484 22.9592 6.22147 23.9859 5.63451C25.021 5.04755 26.1926 4.75408 27.5008 4.75408C28.8339 4.75408 30.0138 5.05163 31.0406 5.64674C32.0756 6.2337 32.8788 7.05707 33.4501 8.11685C34.0214 9.17663 34.3071 10.3791 34.3071 11.7242C34.3071 13.0774 34.0173 14.284 33.4377 15.3437C32.8663 16.3954 32.0632 17.2188 31.0282 17.8139C30.0014 18.4008 28.8257 18.6943 27.5008 18.6943ZM24.2964 11.7242C24.2964 12.9307 24.5697 13.8764 25.1162 14.5611C25.6709 15.2459 26.4658 15.5883 27.5008 15.5883C28.5524 15.5883 29.3514 15.2378 29.8979 14.5367C30.4527 13.8356 30.7301 12.8981 30.7301 11.7242C30.7301 10.5258 30.4527 9.58424 29.8979 8.89946C29.3432 8.20652 28.5441 7.86005 27.5008 7.86005C26.4327 7.86005 25.6295 8.20652 25.0913 8.89946C24.5614 9.58424 24.2964 10.5258 24.2964 11.7242Z" fill="black"/>
<path d="M43.0745 18.6943C41.7414 18.6943 40.5615 18.4008 39.5348 17.8139C38.5081 17.2188 37.709 16.3954 37.1377 15.3437C36.5747 14.284 36.2931 13.0774 36.2931 11.7242C36.2931 10.3628 36.5788 9.15625 37.1501 8.10462C37.7297 7.04484 38.5329 6.22147 39.5596 5.63451C40.5946 5.04755 41.7663 4.75408 43.0745 4.75408C44.4076 4.75408 45.5875 5.05163 46.6143 5.64674C47.6493 6.2337 48.4524 7.05707 49.0238 8.11685C49.5951 9.17663 49.8808 10.3791 49.8808 11.7242C49.8808 13.0774 49.591 14.284 49.0114 15.3437C48.44 16.3954 47.6369 17.2188 46.6018 17.8139C45.5751 18.4008 44.3993 18.6943 43.0745 18.6943ZM39.8701 11.7242C39.8701 12.9307 40.1434 13.8764 40.6899 14.5611C41.2446 15.2459 42.0395 15.5883 43.0745 15.5883C44.1261 15.5883 44.9251 15.2378 45.4716 14.5367C46.0264 13.8356 46.3038 12.8981 46.3038 11.7242C46.3038 10.5258 46.0264 9.58424 45.4716 8.89946C44.9168 8.20652 44.1178 7.86005 43.0745 7.86005C42.0064 7.86005 41.2032 8.20652 40.665 8.89946C40.1351 9.58424 39.8701 10.5258 39.8701 11.7242Z" fill="black"/>
<path d="M52.8604 0.71875H56.2387V18.3274H52.8604V0.71875Z" fill="black"/>
<path d="M60.5087 15.0014H63.887V18.3274H60.5087V15.0014Z" fill="#7573F6"/>
<path d="M67.9189 5.12092H70.8997V7.24864C71.2723 6.58832 71.7526 6.09103 72.3404 5.75679C73.0939 5.30027 73.9882 5.07201 75.0232 5.07201C75.3047 5.07201 75.5614 5.08831 75.7932 5.12092V8.2269C75.5366 8.14538 75.2178 8.10462 74.8369 8.10462C74.2076 8.10462 73.6487 8.21875 73.1602 8.44701C72.564 8.71603 72.1086 9.11549 71.794 9.64538C71.4793 10.1753 71.322 10.8193 71.322 11.5774V18.3274H67.9189V5.12092Z" fill="#7573F6"/>
<path d="M83.1487 18.7188C81.5755 18.7188 80.3997 18.3234 79.6214 17.5326C78.8513 16.7418 78.3711 15.9062 78.1806 15.0258C77.9985 14.1454 77.9074 13.3139 77.9074 12.5312V5.12092H81.3353V11.3573C81.3353 12.0258 81.385 12.6535 81.4844 13.2405C81.5837 13.8274 81.8446 14.3655 82.2668 14.8546C82.6974 15.3437 83.3474 15.5883 84.2168 15.5883C84.9951 15.5883 85.6658 15.3274 86.2289 14.8057C86.7919 14.2758 87.0734 13.2812 87.0734 11.822V5.12092H90.4766V18.3274H87.4957V16.9701C86.9906 17.5245 86.3738 17.9565 85.6451 18.2663C84.9165 18.5679 84.0843 18.7188 83.1487 18.7188Z" fill="#7573F6"/>
</svg>
