<svg width="16" height="21" viewBox="0 0 16 21" fill="none" xmlns="http://www.w3.org/2000/svg">
<path d="M13.6316 13.0201C13.6316 14.2693 13.2612 15.4904 12.5672 16.529C11.8732 17.5676 10.8868 18.3771 9.73274 18.8552C8.57868 19.3332 7.30878 19.4583 6.08364 19.2146C4.8585 18.9709 3.73313 18.3694 2.84985 17.4861C1.96658 16.6028 1.36505 15.4774 1.12136 14.2523C0.877663 13.0272 1.00274 11.7573 1.48076 10.6032C1.95879 9.44914 2.7683 8.46275 3.80693 7.76876C4.84555 7.07477 6.06665 6.70436 7.31579 6.70436V13.0201H13.6316Z" stroke="white" stroke-width="2"/>
<path d="M9.84211 5.33594C10.5195 5.33594 11.1902 5.46935 11.8159 5.72856C12.4417 5.98777 13.0103 6.36769 13.4893 6.84665C13.9682 7.3256 14.3482 7.89421 14.6074 8.51999C14.8666 9.14578 15 9.81649 15 10.4938H9.84211L9.84211 5.33594Z" stroke="white" stroke-width="2"/>
</svg>
