<svg width="16" height="21" viewBox="0 0 16 21" fill="none" xmlns="http://www.w3.org/2000/svg">
<path d="M14.4657 10.4747C14.7881 10.2706 15 9.92595 15 9.53524V8.64231C15 8.01557 14.4549 7.5075 13.7825 7.5075H12.1647M14.4657 10.4747V18.674C14.4657 19.0396 14.1477 19.3359 13.7554 19.3359H2.2446C1.85235 19.3359 1.53436 19.0396 1.53436 18.674V10.4747M14.4657 10.4747L8 10.4747M1.53436 10.4747C1.21189 10.2706 1 9.92595 1 9.53524V8.64231C1 8.01557 1.54511 7.5075 2.21755 7.5075H8M1.53436 10.4747L8 10.4747M8 7.5075V10.4747M8 7.5075L11.037 5.33594C11.037 5.33594 11.8701 5.51895 12.1647 5.89392C12.5641 6.40235 12.1647 7.5075 12.1647 7.5075M8 7.5075H12.1647M8 7.5075L4.96302 5.33594C4.96302 5.33594 4.12985 5.51895 3.8353 5.89392C3.43591 6.40235 3.8353 7.5075 3.8353 7.5075M8 10.4747V16.5646" stroke="white" strokeWidth="2"/>
</svg>
