<svg width="18" height="17" viewBox="0 0 18 17" fill="none" xmlns="http://www.w3.org/2000/svg">
<path d="M8.56296 3.04257L9 3.82891L9.43704 3.04257C9.80305 2.38402 10.3372 1.83305 10.9858 1.4455C11.6303 1.06044 12.3649 0.850322 13.1164 0.836129C14.3254 0.89229 15.4632 1.42065 16.2832 2.30634C17.1064 3.19554 17.5425 4.37265 17.4967 5.58044L17.4964 5.5899V5.59937C17.4964 7.13152 16.6796 8.79805 15.429 10.4341C14.1874 12.0582 12.5691 13.5865 11.0785 14.8317L11.0781 14.832C10.4964 15.3188 9.76053 15.5859 9 15.5859C8.23947 15.5859 7.5036 15.3188 6.92186 14.832L6.92151 14.8317C5.43088 13.5865 3.8126 12.0582 2.57104 10.4341C1.32035 8.79805 0.503629 7.13152 0.503629 5.59937V5.5899L0.503271 5.58044C0.457506 4.37265 0.89357 3.19554 1.71682 2.30634C2.53682 1.42065 3.67463 0.89229 4.88358 0.836129C5.6351 0.850322 6.36973 1.06044 7.01416 1.4455C7.66277 1.83305 8.19695 2.38402 8.56296 3.04257Z" fill="#FDFDFD" stroke="#BEC0BF"/>
</svg>
