<svg width="18" height="18" viewBox="0 0 18 18" fill="none" xmlns="http://www.w3.org/2000/svg">
<rect width="17.8889" height="17.8889" rx="8.94444" fill="#7573F6"/>
<path d="M6.74089 12.1232L11.029 5.89245M8.05868 7.27153C8.05868 8.0989 7.38796 8.76962 6.56059 8.76962C5.73322 8.76962 5.0625 8.0989 5.0625 7.27153C5.0625 6.44415 5.73322 5.77344 6.56059 5.77344C7.38796 5.77344 8.05868 6.44415 8.05868 7.27153ZM12.8714 10.6251C12.8714 11.4525 12.2007 12.1232 11.3733 12.1232C10.5459 12.1232 9.8752 11.4525 9.8752 10.6251C9.8752 9.79775 10.5459 9.12703 11.3733 9.12703C12.2007 9.12703 12.8714 9.79775 12.8714 10.6251Z" stroke="white" strokeWidth="0.888889" strokeLinecap="round"/>
</svg>
