<svg width="16" height="17" viewBox="0 0 16 17" fill="none" xmlns="http://www.w3.org/2000/svg">
<path d="M0.980919 7.65173C0.980919 7.65173 8.05733 4.57844 10.5116 3.49629C11.4524 3.06343 14.6429 1.67828 14.6429 1.67828C14.6429 1.67828 16.1154 1.07228 15.9927 2.544C15.9518 3.15 15.6246 5.27101 15.2974 7.56516C14.8065 10.8116 14.2748 14.361 14.2748 14.361C14.2748 14.361 14.193 15.3566 13.4976 15.5298C12.8022 15.7029 11.6569 14.9237 11.4524 14.7506C11.2888 14.6207 8.38457 12.6729 7.32106 11.7206C7.03473 11.4609 6.7075 10.9415 7.36196 10.3355C8.83451 8.90702 10.5934 7.1323 11.6569 6.00687C12.1477 5.48744 12.6386 4.27543 10.5934 5.74715C7.6892 7.86816 4.82591 9.85931 4.82591 9.85931C4.82591 9.85931 4.17144 10.2922 2.94432 9.90259C1.71719 9.51302 0.285549 8.99359 0.285549 8.99359C0.285549 8.99359 -0.69615 8.3443 0.980919 7.65173Z" fill="#35AEE2"/>
</svg>
