<svg width="12" height="12" viewBox="0 0 12 12" fill="none" xmlns="http://www.w3.org/2000/svg">
<path d="M0.73569 5.68216C0.73569 5.68216 6.043 3.37719 7.88369 2.56558C8.58928 2.24093 10.9822 1.20207 10.9822 1.20207C10.9822 1.20207 12.0866 0.747571 11.9946 1.85136C11.9639 2.30586 11.7184 3.89661 11.473 5.61723C11.1049 8.05205 10.7061 10.7141 10.7061 10.7141C10.7061 10.7141 10.6447 11.4608 10.1232 11.5907C9.60166 11.7205 8.74267 11.1362 8.58928 11.0063C8.46657 10.9089 6.28843 9.44802 5.4908 8.73381C5.27605 8.53902 5.03062 8.14945 5.52147 7.69495C6.62589 6.62362 7.94504 5.29258 8.74267 4.44851C9.11081 4.05894 9.47895 3.14993 7.94504 4.25372C5.7669 5.84448 3.61943 7.33784 3.61943 7.33784C3.61943 7.33784 3.12858 7.66248 2.20824 7.3703C1.2879 7.07812 0.214162 6.68855 0.214162 6.68855C0.214162 6.68855 -0.522113 6.20159 0.73569 5.68216Z" fill="#35AEE2"/>
</svg>
