<svg width="16" height="17" viewBox="0 0 16 17" fill="none" xmlns="http://www.w3.org/2000/svg">
<path fill-rule="evenodd" clip-rule="evenodd" d="M4.33786 6.2882C4.31029 5.92191 4.38218 5.55498 4.54603 5.22592C4.59594 5.09483 4.66533 4.97194 4.75186 4.86136C4.90632 4.6532 5.11272 4.48887 5.35056 4.38466C5.35056 4.38466 6.05747 4.31552 6.11863 4.4102C6.44622 4.97678 6.72027 5.57245 6.93726 6.18953C7.04548 6.59311 6.47738 7.05376 6.47738 7.05376C6.47738 7.05376 6.11746 7.23657 6.47738 7.68925C6.74555 8.0271 7.20192 8.61583 7.47598 8.83321C7.76547 9.06923 8.07345 9.28181 8.39696 9.46893C9.06622 9.83865 9.19089 9.79927 9.19089 9.79927C9.19089 9.79927 9.31439 9.84955 9.65078 9.39264C9.83074 9.15007 10.0272 8.86532 10.2142 8.80789C10.4306 8.74192 12.1784 9.74197 12.109 9.67213C12.2314 9.79506 12.1349 10.1891 12.1349 10.1891C12.1349 10.1891 12.1726 10.63 11.5068 11.1383C11.0681 11.4736 10.3424 11.5534 10.3424 11.5534C9.88544 11.5208 9.43633 11.4181 9.01093 11.2487C8.30168 10.9824 7.55242 10.7582 6.57969 9.87615C5.90396 9.26483 5.31691 8.5628 4.8354 7.79027C4.32375 6.91127 4.33786 6.2882 4.33786 6.2882ZM8.15347 15.7222C6.79728 15.7242 5.46382 15.3751 4.28374 14.7093L0 16.0781L1.40792 11.9103C0.519424 10.4279 0.148235 8.69422 0.352202 6.9796C0.556168 5.26497 1.32382 3.66576 2.53551 2.43129C3.74719 1.19682 5.33481 0.396469 7.05084 0.155004C8.76686 -0.0864611 10.5149 0.244535 12.0223 1.09639C13.5298 1.94825 14.7119 3.27308 15.3846 4.86436C16.0572 6.45564 16.1824 8.22393 15.7408 9.89355C15.2991 11.5632 14.3154 13.0403 12.943 14.0946C11.5705 15.1489 9.88653 15.7212 8.15347 15.7222ZM8.14052 1.41029C6.93523 1.40582 5.75206 1.73257 4.72108 2.3546C3.69009 2.97663 2.85122 3.86986 2.29673 4.93607C1.74224 6.00227 1.49359 7.20017 1.57812 8.39804C1.66264 9.59591 2.07709 10.7474 2.77586 11.7258L2.15129 13.6125L2.15364 13.6142L1.97132 14.1463L3.03109 13.8329C3.0294 13.8309 3.02741 13.8291 3.0252 13.8277L4.479 13.3719C5.3302 13.9447 6.30443 14.3106 7.32338 14.4401C8.34233 14.5696 9.37756 14.4591 10.3459 14.1175C11.3141 13.7759 12.1885 13.2127 12.8985 12.4732C13.6086 11.7337 14.1346 10.8385 14.4343 9.85962C14.7339 8.88074 14.7988 7.84546 14.6238 6.83703C14.4488 5.8286 14.0387 4.87514 13.4266 4.05332C12.8144 3.23151 12.0173 2.56426 11.0992 2.10521C10.1811 1.64617 9.16773 1.40815 8.14052 1.41029Z" fill="#00C232"/>
</svg>
